<mxfile host="app.diagrams.net" modified="2024-01-04T01:53:14.324Z" agent="Mozilla/5.0 (Windows NT 10.0; Win64; x64) AppleWebKit/537.36 (KHTML, like Gecko) Chrome/120.0.0.0 Safari/537.36" etag="2Hbr2__OYMI44GXLdm54" version="22.1.16" type="github">
  <diagram name="Page-1" id="nk5v08s5BfaQFNa17w0F">
    <mxGraphModel dx="2074" dy="1144" grid="1" gridSize="10" guides="1" tooltips="1" connect="1" arrows="1" fold="1" page="1" pageScale="1" pageWidth="850" pageHeight="1100" math="0" shadow="0">
      <root>
        <mxCell id="0" />
        <mxCell id="1" parent="0" />
        <mxCell id="xPZyyfwcPpf6SMU2YIp4-1" value="" style="endArrow=none;html=1;rounded=0;" edge="1" parent="1">
          <mxGeometry width="50" height="50" relative="1" as="geometry">
            <mxPoint x="35" y="680" as="sourcePoint" />
            <mxPoint x="815" y="680" as="targetPoint" />
          </mxGeometry>
        </mxCell>
        <mxCell id="xPZyyfwcPpf6SMU2YIp4-2" value="" style="endArrow=none;html=1;rounded=0;" edge="1" parent="1">
          <mxGeometry width="50" height="50" relative="1" as="geometry">
            <mxPoint x="35" y="520" as="sourcePoint" />
            <mxPoint x="815" y="520" as="targetPoint" />
          </mxGeometry>
        </mxCell>
        <mxCell id="xPZyyfwcPpf6SMU2YIp4-4" value="" style="endArrow=none;dashed=1;html=1;dashPattern=1 3;strokeWidth=2;rounded=0;" edge="1" parent="1">
          <mxGeometry width="50" height="50" relative="1" as="geometry">
            <mxPoint x="45" y="600" as="sourcePoint" />
            <mxPoint x="805" y="600" as="targetPoint" />
            <Array as="points" />
          </mxGeometry>
        </mxCell>
        <mxCell id="xPZyyfwcPpf6SMU2YIp4-14" style="rounded=0;orthogonalLoop=1;jettySize=auto;html=1;exitX=0.25;exitY=1;exitDx=0;exitDy=0;shape=link;flowAnimation=1;fillColor=#008a00;strokeColor=#005700;" edge="1" parent="1" source="xPZyyfwcPpf6SMU2YIp4-5" target="xPZyyfwcPpf6SMU2YIp4-10">
          <mxGeometry relative="1" as="geometry" />
        </mxCell>
        <mxCell id="xPZyyfwcPpf6SMU2YIp4-16" style="rounded=0;orthogonalLoop=1;jettySize=auto;html=1;shape=link;flowAnimation=1;fillColor=#1ba1e2;strokeColor=#006EAF;" edge="1" parent="1" source="xPZyyfwcPpf6SMU2YIp4-5" target="xPZyyfwcPpf6SMU2YIp4-12">
          <mxGeometry relative="1" as="geometry" />
        </mxCell>
        <mxCell id="xPZyyfwcPpf6SMU2YIp4-5" value="" style="shape=trapezoid;perimeter=trapezoidPerimeter;whiteSpace=wrap;html=1;fixedSize=1;fillColor=#1ba1e2;fontColor=#ffffff;strokeColor=#006EAF;" vertex="1" parent="1">
          <mxGeometry x="200" y="620" width="90" height="30" as="geometry" />
        </mxCell>
        <mxCell id="xPZyyfwcPpf6SMU2YIp4-22" style="rounded=0;orthogonalLoop=1;jettySize=auto;html=1;exitX=0.5;exitY=1;exitDx=0;exitDy=0;shape=link;flowAnimation=1;fillColor=#008a00;strokeColor=#005700;" edge="1" parent="1" source="xPZyyfwcPpf6SMU2YIp4-6" target="xPZyyfwcPpf6SMU2YIp4-12">
          <mxGeometry relative="1" as="geometry" />
        </mxCell>
        <mxCell id="xPZyyfwcPpf6SMU2YIp4-6" value="" style="shape=trapezoid;perimeter=trapezoidPerimeter;whiteSpace=wrap;html=1;fixedSize=1;fillColor=#60a917;fontColor=#ffffff;strokeColor=#2D7600;" vertex="1" parent="1">
          <mxGeometry x="380" y="620" width="90" height="30" as="geometry" />
        </mxCell>
        <mxCell id="xPZyyfwcPpf6SMU2YIp4-7" value="" style="shape=trapezoid;perimeter=trapezoidPerimeter;whiteSpace=wrap;html=1;fixedSize=1;fillColor=#bac8d3;strokeColor=#23445d;" vertex="1" parent="1">
          <mxGeometry x="230" y="535" width="90" height="30" as="geometry" />
        </mxCell>
        <mxCell id="xPZyyfwcPpf6SMU2YIp4-8" value="" style="shape=trapezoid;perimeter=trapezoidPerimeter;whiteSpace=wrap;html=1;fixedSize=1;fillColor=#bac8d3;strokeColor=#23445d;" vertex="1" parent="1">
          <mxGeometry x="480" y="540" width="90" height="30" as="geometry" />
        </mxCell>
        <mxCell id="xPZyyfwcPpf6SMU2YIp4-23" style="edgeStyle=orthogonalEdgeStyle;rounded=0;orthogonalLoop=1;jettySize=auto;html=1;shape=link;flowAnimation=1;fillColor=#008a00;strokeColor=#005700;" edge="1" parent="1" source="xPZyyfwcPpf6SMU2YIp4-9" target="xPZyyfwcPpf6SMU2YIp4-13">
          <mxGeometry relative="1" as="geometry" />
        </mxCell>
        <mxCell id="xPZyyfwcPpf6SMU2YIp4-9" value="" style="shape=trapezoid;perimeter=trapezoidPerimeter;whiteSpace=wrap;html=1;fixedSize=1;fillColor=#60a917;fontColor=#ffffff;strokeColor=#2D7600;" vertex="1" parent="1">
          <mxGeometry x="690" y="620" width="90" height="30" as="geometry" />
        </mxCell>
        <mxCell id="xPZyyfwcPpf6SMU2YIp4-10" value="" style="image;html=1;image=img/lib/clip_art/computers/Mainframe_128x128.png" vertex="1" parent="1">
          <mxGeometry x="80" y="790" width="50" height="110" as="geometry" />
        </mxCell>
        <mxCell id="xPZyyfwcPpf6SMU2YIp4-12" value="" style="image;html=1;image=img/lib/clip_art/computers/Mainframe_128x128.png" vertex="1" parent="1">
          <mxGeometry x="400" y="790" width="50" height="110" as="geometry" />
        </mxCell>
        <mxCell id="xPZyyfwcPpf6SMU2YIp4-13" value="" style="image;html=1;image=img/lib/clip_art/computers/Mainframe_128x128.png" vertex="1" parent="1">
          <mxGeometry x="710" y="790" width="50" height="110" as="geometry" />
        </mxCell>
        <mxCell id="xPZyyfwcPpf6SMU2YIp4-17" value="" style="endArrow=classic;startArrow=classic;html=1;rounded=0;entryX=1;entryY=0.75;entryDx=0;entryDy=0;exitX=0;exitY=0.75;exitDx=0;exitDy=0;flowAnimation=1;" edge="1" parent="1" source="xPZyyfwcPpf6SMU2YIp4-13" target="xPZyyfwcPpf6SMU2YIp4-12">
          <mxGeometry width="50" height="50" relative="1" as="geometry">
            <mxPoint x="400" y="610" as="sourcePoint" />
            <mxPoint x="540" y="600" as="targetPoint" />
          </mxGeometry>
        </mxCell>
        <mxCell id="xPZyyfwcPpf6SMU2YIp4-18" value="" style="endArrow=classic;startArrow=classic;html=1;rounded=0;entryX=1;entryY=0.75;entryDx=0;entryDy=0;exitX=0;exitY=0.75;exitDx=0;exitDy=0;flowAnimation=1;" edge="1" parent="1" source="xPZyyfwcPpf6SMU2YIp4-12" target="xPZyyfwcPpf6SMU2YIp4-10">
          <mxGeometry width="50" height="50" relative="1" as="geometry">
            <mxPoint x="410" y="883" as="sourcePoint" />
            <mxPoint x="150" y="893" as="targetPoint" />
          </mxGeometry>
        </mxCell>
        <mxCell id="xPZyyfwcPpf6SMU2YIp4-20" style="rounded=0;orthogonalLoop=1;jettySize=auto;html=1;shape=link;flowAnimation=1;fillColor=#fa6800;strokeColor=#C73500;" edge="1" parent="1" source="xPZyyfwcPpf6SMU2YIp4-19">
          <mxGeometry relative="1" as="geometry">
            <mxPoint x="270" y="530" as="targetPoint" />
          </mxGeometry>
        </mxCell>
        <mxCell id="xPZyyfwcPpf6SMU2YIp4-21" style="rounded=0;orthogonalLoop=1;jettySize=auto;html=1;shape=link;flowAnimation=1;fillColor=#fa6800;strokeColor=#C73500;" edge="1" parent="1" source="xPZyyfwcPpf6SMU2YIp4-19" target="xPZyyfwcPpf6SMU2YIp4-8">
          <mxGeometry relative="1" as="geometry" />
        </mxCell>
        <mxCell id="xPZyyfwcPpf6SMU2YIp4-19" value="" style="image;html=1;image=img/lib/clip_art/networking/Cloud_Computer_128x128.png" vertex="1" parent="1">
          <mxGeometry x="210" y="60" width="380" height="110" as="geometry" />
        </mxCell>
        <mxCell id="xPZyyfwcPpf6SMU2YIp4-27" value="" style="shape=flexArrow;endArrow=classic;html=1;rounded=0;flowAnimation=1;fillColor=#008a00;strokeColor=#005700;exitX=0.75;exitY=0;exitDx=0;exitDy=0;" edge="1" parent="1" source="xPZyyfwcPpf6SMU2YIp4-10" target="xPZyyfwcPpf6SMU2YIp4-19">
          <mxGeometry width="50" height="50" relative="1" as="geometry">
            <mxPoint x="100" y="800" as="sourcePoint" />
            <mxPoint x="150" y="750" as="targetPoint" />
            <Array as="points">
              <mxPoint x="290" y="370" />
            </Array>
          </mxGeometry>
        </mxCell>
        <mxCell id="xPZyyfwcPpf6SMU2YIp4-28" value="" style="shape=flexArrow;endArrow=classic;html=1;rounded=0;fillColor=#008a00;strokeColor=#005700;" edge="1" parent="1" source="xPZyyfwcPpf6SMU2YIp4-19" target="xPZyyfwcPpf6SMU2YIp4-13">
          <mxGeometry width="50" height="50" relative="1" as="geometry">
            <mxPoint x="510" y="200" as="sourcePoint" />
            <mxPoint x="560" y="150" as="targetPoint" />
          </mxGeometry>
        </mxCell>
        <mxCell id="xPZyyfwcPpf6SMU2YIp4-29" value="RSU1" style="text;html=1;align=center;verticalAlign=middle;resizable=0;points=[];autosize=1;strokeColor=none;fillColor=none;" vertex="1" parent="1">
          <mxGeometry x="70" y="908" width="60" height="30" as="geometry" />
        </mxCell>
        <mxCell id="xPZyyfwcPpf6SMU2YIp4-30" value="RSU2" style="text;html=1;align=center;verticalAlign=middle;resizable=0;points=[];autosize=1;strokeColor=none;fillColor=none;" vertex="1" parent="1">
          <mxGeometry x="400" y="908" width="60" height="30" as="geometry" />
        </mxCell>
        <mxCell id="xPZyyfwcPpf6SMU2YIp4-31" value="RSU3" style="text;html=1;align=center;verticalAlign=middle;resizable=0;points=[];autosize=1;strokeColor=none;fillColor=none;" vertex="1" parent="1">
          <mxGeometry x="700" y="918" width="60" height="30" as="geometry" />
        </mxCell>
      </root>
    </mxGraphModel>
  </diagram>
</mxfile>
